<mxfile host="app.diagrams.net" agent="Mozilla/5.0 (Macintosh; Intel Mac OS X 10.15; rv:139.0) Gecko/20100101 Firefox/139.0" version="27.1.1">
  <diagram name="Page-1" id="FyWChuQvwsGKasr2a4Tt">
    <mxGraphModel dx="946" dy="523" grid="0" gridSize="10" guides="1" tooltips="1" connect="1" arrows="1" fold="1" page="1" pageScale="1" pageWidth="827" pageHeight="583" background="#000000" math="0" shadow="0">
      <root>
        <mxCell id="0" />
        <mxCell id="1" parent="0" />
        <mxCell id="cjmK6H8IaGRMg5C8TeUC-3" value="" style="curved=1;noEdgeStyle=1;orthogonal=1;entryX=0;entryY=0.5;entryDx=0;entryDy=0;entryPerimeter=0;flowAnimation=1;rounded=0;strokeWidth=3;strokeColor=#7EA6E0;fontColor=#000000;" parent="1" target="cjmK6H8IaGRMg5C8TeUC-16" edge="1">
          <mxGeometry relative="1" as="geometry">
            <mxPoint x="96" y="247" as="sourcePoint" />
            <mxPoint x="188.98000000000002" y="193" as="targetPoint" />
            <Array as="points">
              <mxPoint x="90" y="203" />
            </Array>
          </mxGeometry>
        </mxCell>
        <mxCell id="cjmK6H8IaGRMg5C8TeUC-5" value="" style="curved=1;noEdgeStyle=1;orthogonal=1;entryX=0;entryY=0.25;entryDx=0;entryDy=0;entryPerimeter=0;flowAnimation=1;rounded=0;strokeWidth=3;strokeColor=#7EA6E0;fontColor=#000000;" parent="1" source="cjmK6H8IaGRMg5C8TeUC-14" target="cjmK6H8IaGRMg5C8TeUC-18" edge="1">
          <mxGeometry relative="1" as="geometry">
            <mxPoint x="140" y="273" as="sourcePoint" />
            <mxPoint x="240" y="363" as="targetPoint" />
            <Array as="points" />
          </mxGeometry>
        </mxCell>
        <mxCell id="cjmK6H8IaGRMg5C8TeUC-14" value="User" style="outlineConnect=0;fontColor=#FFFFFF;gradientColor=none;fillColor=default;strokeColor=none;dashed=0;verticalLabelPosition=middle;verticalAlign=middle;align=right;fontSize=12;fontStyle=1;aspect=fixed;pointerEvents=1;shape=mxgraph.aws4.user;labelPosition=left;shadow=0;labelBorderColor=none;labelBackgroundColor=none;html=1;spacing=2;" parent="1" vertex="1">
          <mxGeometry x="60" y="251.13" width="71.87" height="71.87" as="geometry" />
        </mxCell>
        <mxCell id="cjmK6H8IaGRMg5C8TeUC-16" value="Route 53" style="points=[[0,0,0],[0.25,0,0],[0.5,0,0],[0.75,0,0],[1,0,0],[0,1,0],[0.25,1,0],[0.5,1,0],[0.75,1,0],[1,1,0],[0,0.25,0],[0,0.5,0],[0,0.75,0],[1,0.25,0],[1,0.5,0],[1,0.75,0]];outlineConnect=0;fontColor=#FFFFFF;fillColor=#8C4FFF;strokeColor=#ffffff;dashed=0;verticalLabelPosition=bottom;verticalAlign=top;align=center;fontSize=12;fontStyle=1;aspect=fixed;shape=mxgraph.aws4.resourceIcon;resIcon=mxgraph.aws4.route_53;shadow=0;labelBorderColor=none;labelBackgroundColor=none;html=1;spacing=2;" parent="1" vertex="1">
          <mxGeometry x="150" y="103" width="80" height="80" as="geometry" />
        </mxCell>
        <mxCell id="cjmK6H8IaGRMg5C8TeUC-27" value="" style="edgeStyle=orthogonalEdgeStyle;rounded=0;orthogonalLoop=1;jettySize=auto;html=1;flowAnimation=1;curved=1;strokeWidth=3;strokeColor=#7EA6E0;exitX=1;exitY=0.25;exitDx=0;exitDy=0;exitPerimeter=0;entryX=0;entryY=0.25;entryDx=0;entryDy=0;entryPerimeter=0;fontColor=#000000;" parent="1" source="cjmK6H8IaGRMg5C8TeUC-18" target="cjmK6H8IaGRMg5C8TeUC-26" edge="1">
          <mxGeometry relative="1" as="geometry">
            <mxPoint x="560" y="163" as="targetPoint" />
            <Array as="points">
              <mxPoint x="500" y="273" />
            </Array>
          </mxGeometry>
        </mxCell>
        <mxCell id="cjmK6H8IaGRMg5C8TeUC-18" value="AWS CloudFront" style="points=[[0,0,0],[0.25,0,0],[0.5,0,0],[0.75,0,0],[1,0,0],[0,1,0],[0.25,1,0],[0.5,1,0],[0.75,1,0],[1,1,0],[0,0.25,0],[0,0.5,0],[0,0.75,0],[1,0.25,0],[1,0.5,0],[1,0.75,0]];outlineConnect=0;fontColor=#FFFFFF;fillColor=#8C4FFF;strokeColor=#ffffff;dashed=0;verticalLabelPosition=bottom;verticalAlign=top;align=center;fontSize=12;fontStyle=1;aspect=fixed;shape=mxgraph.aws4.resourceIcon;resIcon=mxgraph.aws4.cloudfront;shadow=0;labelBorderColor=none;labelBackgroundColor=none;html=1;spacing=2;" parent="1" vertex="1">
          <mxGeometry x="298" y="253" width="78" height="78" as="geometry" />
        </mxCell>
        <mxCell id="cjmK6H8IaGRMg5C8TeUC-23" value="" style="edgeStyle=orthogonalEdgeStyle;rounded=0;orthogonalLoop=1;jettySize=auto;html=1;startArrow=none;startFill=0;flowAnimation=1;curved=1;endArrow=classic;endFill=1;strokeWidth=3;strokeColor=#7EA6E0;fontColor=#000000;entryX=0.75;entryY=0;entryDx=0;entryDy=0;entryPerimeter=0;exitX=0.75;exitY=1;exitDx=0;exitDy=0;exitPerimeter=0;" parent="1" source="cjmK6H8IaGRMg5C8TeUC-22" target="cjmK6H8IaGRMg5C8TeUC-18" edge="1">
          <mxGeometry relative="1" as="geometry">
            <mxPoint x="440" y="203" as="sourcePoint" />
            <mxPoint x="420" y="243" as="targetPoint" />
          </mxGeometry>
        </mxCell>
        <mxCell id="cjmK6H8IaGRMg5C8TeUC-22" value="AWS Certificate Manager" style="points=[[0,0,0],[0.25,0,0],[0.5,0,0],[0.75,0,0],[1,0,0],[0,1,0],[0.25,1,0],[0.5,1,0],[0.75,1,0],[1,1,0],[0,0.25,0],[0,0.5,0],[0,0.75,0],[1,0.25,0],[1,0.5,0],[1,0.75,0]];outlineConnect=0;fontColor=#FFFFFF;fillColor=#DD344C;strokeColor=#ffffff;dashed=0;verticalLabelPosition=middle;verticalAlign=middle;align=left;fontSize=12;fontStyle=1;aspect=fixed;shape=mxgraph.aws4.resourceIcon;resIcon=mxgraph.aws4.certificate_manager_3;labelPosition=right;spacingLeft=5;shadow=0;labelBorderColor=none;labelBackgroundColor=none;html=1;spacing=2;" parent="1" vertex="1">
          <mxGeometry x="298" y="103" width="78" height="78" as="geometry" />
        </mxCell>
        <mxCell id="cjmK6H8IaGRMg5C8TeUC-25" value="" style="edgeStyle=orthogonalEdgeStyle;rounded=0;orthogonalLoop=1;jettySize=auto;html=1;flowAnimation=1;curved=1;strokeWidth=3;strokeColor=#7EA6E0;fontColor=#000000;" parent="1" source="cjmK6H8IaGRMg5C8TeUC-24" target="cjmK6H8IaGRMg5C8TeUC-22" edge="1">
          <mxGeometry relative="1" as="geometry" />
        </mxCell>
        <mxCell id="cjmK6H8IaGRMg5C8TeUC-24" value="SSL cert" style="outlineConnect=0;fontColor=#FFFFFF;gradientColor=none;fillColor=#DD344C;strokeColor=none;dashed=0;verticalLabelPosition=bottom;verticalAlign=top;align=center;fontSize=12;fontStyle=1;aspect=fixed;pointerEvents=1;shape=mxgraph.aws4.certificate_manager_2;shadow=0;labelBorderColor=none;labelBackgroundColor=none;html=1;spacing=2;" parent="1" vertex="1">
          <mxGeometry x="410" y="43" width="54.17" height="50" as="geometry" />
        </mxCell>
        <mxCell id="cjmK6H8IaGRMg5C8TeUC-26" value="AWS S3" style="points=[[0,0,0],[0.25,0,0],[0.5,0,0],[0.75,0,0],[1,0,0],[0,1,0],[0.25,1,0],[0.5,1,0],[0.75,1,0],[1,1,0],[0,0.25,0],[0,0.5,0],[0,0.75,0],[1,0.25,0],[1,0.5,0],[1,0.75,0]];outlineConnect=0;fontColor=#FFFFFF;fillColor=#7AA116;strokeColor=#ffffff;dashed=0;verticalLabelPosition=bottom;verticalAlign=top;align=center;fontSize=12;fontStyle=1;aspect=fixed;shape=mxgraph.aws4.resourceIcon;resIcon=mxgraph.aws4.s3;shadow=0;labelBorderColor=none;labelBackgroundColor=none;html=1;spacing=2;" parent="1" vertex="1">
          <mxGeometry x="530" y="253" width="78" height="78" as="geometry" />
        </mxCell>
        <mxCell id="cjmK6H8IaGRMg5C8TeUC-28" value="" style="curved=1;noEdgeStyle=1;orthogonal=1;flowAnimation=1;rounded=0;exitX=0;exitY=0.75;exitDx=0;exitDy=0;exitPerimeter=0;strokeWidth=3;strokeColor=#7EA6E0;fontColor=#000000;" parent="1" source="cjmK6H8IaGRMg5C8TeUC-18" edge="1">
          <mxGeometry relative="1" as="geometry">
            <mxPoint x="157.71236166328254" y="303" as="sourcePoint" />
            <mxPoint x="140" y="313" as="targetPoint" />
            <Array as="points" />
          </mxGeometry>
        </mxCell>
        <mxCell id="cjmK6H8IaGRMg5C8TeUC-29" value="" style="edgeStyle=orthogonalEdgeStyle;rounded=0;orthogonalLoop=1;jettySize=auto;html=1;startArrow=none;startFill=0;flowAnimation=1;curved=1;endArrow=classic;endFill=1;strokeWidth=3;strokeColor=#7EA6E0;fontColor=#000000;exitX=0.25;exitY=0;exitDx=0;exitDy=0;exitPerimeter=0;entryX=0.25;entryY=1;entryDx=0;entryDy=0;entryPerimeter=0;" parent="1" source="cjmK6H8IaGRMg5C8TeUC-18" target="cjmK6H8IaGRMg5C8TeUC-22" edge="1">
          <mxGeometry relative="1" as="geometry">
            <mxPoint x="350" y="203" as="sourcePoint" />
            <mxPoint x="350" y="213" as="targetPoint" />
          </mxGeometry>
        </mxCell>
        <mxCell id="cjmK6H8IaGRMg5C8TeUC-30" value="" style="curved=1;noEdgeStyle=1;orthogonal=1;flowAnimation=1;rounded=0;exitX=0;exitY=0.75;exitDx=0;exitDy=0;exitPerimeter=0;strokeWidth=3;strokeColor=#7EA6E0;entryX=1;entryY=0.75;entryDx=0;entryDy=0;entryPerimeter=0;fontColor=#000000;" parent="1" source="cjmK6H8IaGRMg5C8TeUC-26" target="cjmK6H8IaGRMg5C8TeUC-18" edge="1">
          <mxGeometry relative="1" as="geometry">
            <mxPoint x="308" y="322" as="sourcePoint" />
            <mxPoint x="150" y="323" as="targetPoint" />
            <Array as="points" />
          </mxGeometry>
        </mxCell>
        <mxCell id="cjmK6H8IaGRMg5C8TeUC-33" value="" style="edgeStyle=orthogonalEdgeStyle;rounded=0;orthogonalLoop=1;jettySize=auto;html=1;exitX=0.5;exitY=1;exitDx=0;exitDy=0;exitPerimeter=0;flowAnimation=1;strokeWidth=3;strokeColor=#7EA6E0;curved=1;fontColor=#000000;endArrow=none;endFill=0;" parent="1" source="cjmK6H8IaGRMg5C8TeUC-31" target="cjmK6H8IaGRMg5C8TeUC-39" edge="1">
          <mxGeometry relative="1" as="geometry">
            <Array as="points">
              <mxPoint x="119" y="360" />
              <mxPoint x="119" y="360" />
            </Array>
          </mxGeometry>
        </mxCell>
        <mxCell id="cjmK6H8IaGRMg5C8TeUC-31" value="" style="points=[[0.13,0.02,0],[0.5,0,0],[0.87,0.02,0],[0.885,0.4,0],[0.985,0.985,0],[0.5,1,0],[0.015,0.985,0],[0.115,0.4,0]];verticalLabelPosition=bottom;verticalAlign=top;aspect=fixed;align=center;pointerEvents=1;shape=mxgraph.cisco19.laptop;fillColor=default;strokeColor=none;fontColor=#FFFFFF;shadow=0;labelBorderColor=none;labelBackgroundColor=none;html=1;spacing=2;fontStyle=1" parent="1" vertex="1">
          <mxGeometry x="90" y="303" width="57.14" height="40" as="geometry" />
        </mxCell>
        <mxCell id="cjmK6H8IaGRMg5C8TeUC-32" value="API Gateway" style="points=[[0,0,0],[0.25,0,0],[0.5,0,0],[0.75,0,0],[1,0,0],[0,1,0],[0.25,1,0],[0.5,1,0],[0.75,1,0],[1,1,0],[0,0.25,0],[0,0.5,0],[0,0.75,0],[1,0.25,0],[1,0.5,0],[1,0.75,0]];outlineConnect=0;fontColor=#FFFFFF;fillColor=#8C4FFF;strokeColor=#ffffff;dashed=0;verticalLabelPosition=bottom;verticalAlign=top;align=center;fontSize=12;fontStyle=1;aspect=fixed;shape=mxgraph.aws4.resourceIcon;resIcon=mxgraph.aws4.api_gateway;shadow=0;labelBorderColor=none;labelBackgroundColor=none;html=1;spacing=2;" parent="1" vertex="1">
          <mxGeometry x="170" y="433" width="78" height="78" as="geometry" />
        </mxCell>
        <mxCell id="BfSlzEz9Cc_tlL2Ug6Km-4" value="" style="edgeStyle=orthogonalEdgeStyle;rounded=0;orthogonalLoop=1;jettySize=auto;html=1;strokeWidth=3;strokeColor=#7EA6E0;flowAnimation=1;exitX=0;exitY=0.5;exitDx=0;exitDy=0;exitPerimeter=0;entryX=0.5;entryY=0;entryDx=0;entryDy=0;entryPerimeter=0;curved=1;" parent="1" source="BfSlzEz9Cc_tlL2Ug6Km-3" target="cjmK6H8IaGRMg5C8TeUC-34" edge="1">
          <mxGeometry relative="1" as="geometry">
            <mxPoint x="502" y="691" as="targetPoint" />
          </mxGeometry>
        </mxCell>
        <mxCell id="cjmK6H8IaGRMg5C8TeUC-34" value="AWS Lambda" style="points=[[0,0,0],[0.25,0,0],[0.5,0,0],[0.75,0,0],[1,0,0],[0,1,0],[0.25,1,0],[0.5,1,0],[0.75,1,0],[1,1,0],[0,0.25,0],[0,0.5,0],[0,0.75,0],[1,0.25,0],[1,0.5,0],[1,0.75,0]];outlineConnect=0;fontColor=#FFFFFF;fillColor=#ED7100;strokeColor=#ffffff;dashed=0;verticalLabelPosition=bottom;verticalAlign=top;align=center;fontSize=12;fontStyle=1;aspect=fixed;shape=mxgraph.aws4.resourceIcon;resIcon=mxgraph.aws4.lambda;shadow=0;labelBorderColor=none;labelBackgroundColor=none;html=1;spacing=2;" parent="1" vertex="1">
          <mxGeometry x="350" y="433" width="78" height="78" as="geometry" />
        </mxCell>
        <mxCell id="cjmK6H8IaGRMg5C8TeUC-35" value="" style="edgeStyle=orthogonalEdgeStyle;rounded=0;orthogonalLoop=1;jettySize=auto;html=1;flowAnimation=1;curved=1;strokeWidth=3;strokeColor=#7EA6E0;exitX=1;exitY=0.25;exitDx=0;exitDy=0;exitPerimeter=0;entryX=0;entryY=0.25;entryDx=0;entryDy=0;entryPerimeter=0;fontColor=#000000;" parent="1" source="cjmK6H8IaGRMg5C8TeUC-32" target="cjmK6H8IaGRMg5C8TeUC-34" edge="1">
          <mxGeometry relative="1" as="geometry">
            <mxPoint x="386" y="283" as="sourcePoint" />
            <mxPoint x="540" y="283" as="targetPoint" />
            <Array as="points">
              <mxPoint x="270" y="453" />
              <mxPoint x="270" y="453" />
            </Array>
          </mxGeometry>
        </mxCell>
        <mxCell id="cjmK6H8IaGRMg5C8TeUC-36" value="" style="curved=1;noEdgeStyle=1;orthogonal=1;flowAnimation=1;rounded=0;exitX=0;exitY=0.75;exitDx=0;exitDy=0;exitPerimeter=0;strokeWidth=3;strokeColor=#7EA6E0;entryX=1;entryY=0.75;entryDx=0;entryDy=0;entryPerimeter=0;fontColor=#000000;" parent="1" source="cjmK6H8IaGRMg5C8TeUC-34" target="cjmK6H8IaGRMg5C8TeUC-32" edge="1">
          <mxGeometry relative="1" as="geometry">
            <mxPoint x="540" y="322" as="sourcePoint" />
            <mxPoint x="386" y="322" as="targetPoint" />
            <Array as="points" />
          </mxGeometry>
        </mxCell>
        <mxCell id="cjmK6H8IaGRMg5C8TeUC-39" value="CloudFlare Turnstile" style="outlineConnect=0;fontColor=#FFFFFF;gradientColor=none;fillColor=default;strokeColor=none;dashed=0;verticalLabelPosition=middle;verticalAlign=middle;align=left;fontSize=12;fontStyle=1;aspect=fixed;pointerEvents=1;shape=mxgraph.aws4.shield2;labelPosition=right;spacingLeft=2;shadow=0;labelBorderColor=none;labelBackgroundColor=none;html=1;spacing=2;" parent="1" vertex="1">
          <mxGeometry x="93.57" y="386.06999999999994" width="50" height="50" as="geometry" />
        </mxCell>
        <mxCell id="cjmK6H8IaGRMg5C8TeUC-43" value="Admin" style="outlineConnect=0;fontColor=#FFFFFF;gradientColor=none;fillColor=default;strokeColor=none;dashed=0;verticalLabelPosition=top;verticalAlign=bottom;align=center;fontSize=12;fontStyle=1;aspect=fixed;pointerEvents=1;shape=mxgraph.aws4.user;shadow=0;labelBorderColor=none;labelBackgroundColor=none;html=1;spacing=2;labelPosition=center;" parent="1" vertex="1">
          <mxGeometry x="713.07" y="259.12999999999994" width="71.87" height="71.87" as="geometry" />
        </mxCell>
        <mxCell id="cjmK6H8IaGRMg5C8TeUC-44" value="" style="edgeStyle=orthogonalEdgeStyle;rounded=0;orthogonalLoop=1;jettySize=auto;html=1;flowAnimation=1;curved=1;strokeWidth=3;strokeColor=#7EA6E0;fontColor=#000000;" parent="1" source="gMh747AjsOHRVhtuyVwb-1" target="cjmK6H8IaGRMg5C8TeUC-43" edge="1">
          <mxGeometry relative="1" as="geometry">
            <mxPoint x="630" y="403" as="sourcePoint" />
            <mxPoint x="540" y="463" as="targetPoint" />
            <Array as="points" />
          </mxGeometry>
        </mxCell>
        <mxCell id="cjmK6H8IaGRMg5C8TeUC-45" value="" style="edgeStyle=orthogonalEdgeStyle;rounded=0;orthogonalLoop=1;jettySize=auto;html=1;flowAnimation=1;curved=1;strokeWidth=3;strokeColor=#7EA6E0;exitX=1;exitY=0.5;exitDx=0;exitDy=0;exitPerimeter=0;entryX=0;entryY=0.5;entryDx=0;entryDy=0;entryPerimeter=0;fontColor=#000000;" parent="1" source="cjmK6H8IaGRMg5C8TeUC-34" target="A13mG0gluk_hXPmwM-zW-1" edge="1">
          <mxGeometry relative="1" as="geometry">
            <mxPoint x="618" y="482" as="sourcePoint" />
            <mxPoint x="530" y="472" as="targetPoint" />
            <Array as="points" />
          </mxGeometry>
        </mxCell>
        <mxCell id="gMh747AjsOHRVhtuyVwb-4" value="" style="edgeStyle=orthogonalEdgeStyle;rounded=0;orthogonalLoop=1;jettySize=auto;html=1;flowAnimation=1;curved=1;strokeWidth=3;strokeColor=#7EA6E0;exitX=1;exitY=0.5;exitDx=0;exitDy=0;exitPerimeter=0;fontColor=#000000;endArrow=none;endFill=0;" parent="1" source="A13mG0gluk_hXPmwM-zW-1" target="gMh747AjsOHRVhtuyVwb-1" edge="1">
          <mxGeometry relative="1" as="geometry">
            <mxPoint x="749" y="433" as="sourcePoint" />
            <mxPoint x="730" y="472" as="targetPoint" />
            <Array as="points" />
          </mxGeometry>
        </mxCell>
        <mxCell id="gMh747AjsOHRVhtuyVwb-1" value="" style="sketch=0;outlineConnect=0;fontColor=#232F3E;gradientColor=none;fillColor=default;strokeColor=none;dashed=0;verticalLabelPosition=bottom;verticalAlign=top;align=center;html=1;fontSize=12;fontStyle=0;aspect=fixed;pointerEvents=1;shape=mxgraph.aws4.email_2;" parent="1" vertex="1">
          <mxGeometry x="724.33" y="456.5" width="49.35" height="31" as="geometry" />
        </mxCell>
        <mxCell id="gMh747AjsOHRVhtuyVwb-5" value="" style="edgeStyle=orthogonalEdgeStyle;rounded=0;orthogonalLoop=1;jettySize=auto;html=1;flowAnimation=1;strokeWidth=3;strokeColor=#7EA6E0;curved=1;fontColor=#000000;entryX=0;entryY=0.5;entryDx=0;entryDy=0;entryPerimeter=0;" parent="1" source="cjmK6H8IaGRMg5C8TeUC-39" target="cjmK6H8IaGRMg5C8TeUC-32" edge="1">
          <mxGeometry relative="1" as="geometry">
            <mxPoint x="170" y="395" as="sourcePoint" />
            <mxPoint x="129" y="385" as="targetPoint" />
            <Array as="points">
              <mxPoint x="119" y="472" />
            </Array>
          </mxGeometry>
        </mxCell>
        <mxCell id="BfSlzEz9Cc_tlL2Ug6Km-3" value="AWS SSM" style="outlineConnect=0;dashed=0;verticalLabelPosition=middle;verticalAlign=middle;align=left;html=1;shape=mxgraph.aws3.parameter_store;fillColor=#759C3E;gradientColor=none;fontStyle=1;fontColor=#FFFFFF;labelPosition=right;" parent="1" vertex="1">
          <mxGeometry x="446" y="350" width="66" height="74" as="geometry" />
        </mxCell>
        <mxCell id="8FVUtXxGBiCsYpbBPz8S-4" value="" style="shape=image;verticalLabelPosition=bottom;labelBackgroundColor=default;verticalAlign=top;aspect=fixed;imageAspect=0;editableCssRules=.*;image=data:image/svg+xml,PHN2ZyB4bWxucz0iaHR0cDovL3d3dy53My5vcmcvMjAwMC9zdmciIHZpZXdCb3g9IjE0Ljk4NTg0NjUxOTQ3MDIxNSAyNzkuNzY3NDU2MDU0Njg3NSA5NjkuOTkzNTMwMjczNDM3NSA0MzkuMTMyNTA3MzI0MjE4NzUiIHdpZHRoPSI5NjkuOTkzNTMwMjczNDM3NSIgaGVpZ2h0PSI0MzkuMTMyNTA3MzI0MjE4NzUiPjxwYXRoIGZpbGw9IiNmNDgwMWYiIGQ9Im02NzYuMSA3MTVxLS44IDEuMS0xLjkgMS45LTEuMS44LTIuNSAxLjItMS4zLjUtMi42LjRoLTY0NS44cS0xLjIgMC0yLjMtLjQtMS4yLS40LTIuMS0xLjItLjktLjktMS41LTEuOS0uNi0xLjEtLjgtMi4zYy0zLjEtMjAuNi0xLjctNDEuNiAzLjktNjEuNiA1LjctMjAuMSAxNS41LTM4LjcgMjguOS01NC42czMwLTI4LjkgNDguNy0zNy45IDM5LjItMTQgNjAtMTQuNWMtNS4yLTIwLjctMy45LTQyLjYgMy43LTYyLjUgNy43LTE5LjkgMjEuMy0zNyAzOS4xLTQ4LjkgMTcuNy0xMS45IDM4LjctMTggNjAuMS0xNy40IDIxLjMuNSA0MiA3LjYgNTkuMSAyMC40IDE2LjItNDcuNSA0Ny40LTg4LjQgODguOS0xMTYuNCA0MS41LTI4LjEgOTEuMS00MS45IDE0MS4xLTM5LjIgNTAuMSAyLjcgOTcuOSAyMS43IDEzNi4yIDU0LjEgMzguMyAzMi4zIDY0LjkgNzYuMyA3NS45IDEyNS4zcTAgLjMuMS42di42cS4xLjMuMS42djEuOGwtLjIgMS4yLS4yIDEuMnEtLjIuNS0uNCAxLjFsLTIwLjEgNTIuNmMtMTUuOSA0MS40LTYxLjQgNzUuNC0xMDMuMSA3Ny4zbC0zNTMgNC42cS0xLjQuMS0yLjYuNi0xLjMuNS0yLjQgMS4zLTEuMS45LTEuOSAyLS44IDEuMS0xLjIgMi40Yy0uNCAxLS41IDIuMS0uNCAzLjJzLjUgMi4xIDEuMSAzIDEuNCAxLjcgMi40IDIuMiAyLjEuOCAzLjEuOGwzNDkuNyA0LjVjMTguNS44IDMzLjUgOC4zIDQyLjggMjEuMSA5LjkgMTMuOSAxMi4xIDMyLjcgNi4yIDUzLjJsLTQuOSAxNy4xcS0uNCAxLjMtMS4yIDIuNXoiLz48cGF0aCBmaWxsPSIjZjlhYjQxIiBkPSJtNzkzLjkgNDcwLjZjMjkuNSAwIDU4LjYgNi45IDg1IDIwIDI2LjQgMTMuMiA0OS40IDMyLjIgNjcuMyA1NS44IDE3LjggMjMuNSAyOS45IDUwLjggMzUuNCA3OS44czQuMyA1OC45LTMuNyA4Ny4zcS0uMyAxLjItMSAyLjItLjYgMS0xLjYgMS44LTEgLjctMi4xIDEuMS0xLjIuMy0yLjQuM2gtMjY2LjhxLTEgMC0xLjgtLjUtLjktLjUtMS40LTEuNC0uNi0uOC0uNy0xLjgtLjEtMSAuMy0xLjlsNS42LTE0LjdjMTUuOC00MS40IDYxLjItNzUuMyAxMDMuMi03Ny4zbDc3LjUtNC42cTEuMy0uMSAyLjYtLjZ0Mi40LTEuM3ExLS44IDEuOC0xLjkuOC0xLjEgMS4zLTIuNC4zLS44LjQtMS42LjEtLjggMC0xLjctLjEtLjgtLjQtMS42LS4zLS44LS44LTEuNC0uNS0uNy0xLTEuMi0uNi0uNS0xLjMtLjktLjctLjQtMS40LS42LS44LS4yLTEuNi0uMmwtNzQuNi00LjZjLTQuMSAwLTguMi0uNS0xMi4yLTEuNS00LS45LTcuOS0yLjMtMTEuNi00LjEtMy43LTEuOS03LjItNC4xLTEwLjQtNi43cy02LTUuNi04LjUtOC45Yy0xMC0xMy45LTEyLjItMzIuNy02LjItNTMuMWwxMy45LTQ3LjVxLjEtLjcuNS0xLjMuMy0uNS43LTEgLjUtLjUgMS4xLS45LjUtLjMgMS4yLS41LjEtLjEuMy0uMi4yIDAgLjQtLjFoLjRxLjItLjEuNC0uMSA1LS4yIDkuNy0uMnoiLz48L3N2Zz4=;" parent="1" vertex="1">
          <mxGeometry x="150" y="375" width="53.03" height="24" as="geometry" />
        </mxCell>
        <mxCell id="A13mG0gluk_hXPmwM-zW-1" value="AWS SES" style="points=[[0,0,0],[0.25,0,0],[0.5,0,0],[0.75,0,0],[1,0,0],[0,1,0],[0.25,1,0],[0.5,1,0],[0.75,1,0],[1,1,0],[0,0.25,0],[0,0.5,0],[0,0.75,0],[1,0.25,0],[1,0.5,0],[1,0.75,0]];outlineConnect=0;fontColor=#FFFFFF;fillColor=#DD344C;strokeColor=#ffffff;dashed=0;verticalLabelPosition=bottom;verticalAlign=top;align=center;fontSize=12;fontStyle=1;aspect=fixed;shape=mxgraph.aws4.resourceIcon;resIcon=mxgraph.aws4.simple_email_service;shadow=0;labelBorderColor=none;labelBackgroundColor=none;html=1;spacing=2;" vertex="1" parent="1">
          <mxGeometry x="533" y="433" width="78" height="78" as="geometry" />
        </mxCell>
      </root>
    </mxGraphModel>
  </diagram>
</mxfile>
